<?xml version="1.0" standalone="no"?><!DOCTYPE svg PUBLIC "-//W3C//DTD SVG 1.1//EN" "http://www.w3.org/Graphics/SVG/1.1/DTD/svg11.dtd"><svg class="icon" width="200px" height="200.00px" viewBox="0 0 1024 1024" version="1.1" xmlns="http://www.w3.org/2000/svg"><path d="M512.032768 9.8304a83.44917333 83.44917333 0 1 1-83.44917333 83.44917333 83.460096 83.460096 0 0 1 83.44917333-83.44917333z m0 83.44917333l89.74062933 99.9424H422.37952c-80.478208 0-106.67076267 20.64384-106.67076267 108.35285334v256.24576c0 49.80736 67.18532267 49.80736 67.18532267 0l5.75624533-234.40042667h17.24689067v641.70666667a45.79874133 45.79874133 0 1 0 91.33533867 0l5.799936-372.46293334h18.10978133l5.7344 372.46293334a45.79874133 45.79874133 0 1 0 91.33533867 0v-641.70666667h17.22504533l5.799936 234.40042667c0 49.80736 67.076096 49.80736 67.076096 0v-256.24576c-0.05461333-87.70901333-26.148864-108.35285333-106.53969067-108.35285334z" /></svg>